# xmcd
#
# Track frame offsets: 
#        150
#        8455
#        17800
#        29490
#        39450
#        51605
#        66305
#        76850
#        89520
#        103110
#        114150
#        125155
#
# Disc length: 1847 seconds
#
# Revision: 0
# Processed by: cddbd v1.5PL3 Copyright (c) Steve Scherf et al.
# Submitted via: ExactAudioCopy v0.95a5
#
DISCID=9b07350c
DTITLE=Various Artist - Classic Country The Country Tradition
DYEAR=1900
DGENRE=Country
TTITLE0=RogerMiller/Dang Me
TTITLE1=Lester Flatt and Earl Scruggs/The Ballad Of Jed Clampett
TTITLE2=Johnny Cash/Ring Of Fire
TTITLE3=Merle Haggard/Mama Tried
TTITLE4=Tammy Wynette/Stand By Your Man
TTITLE5=Jeannie C. Riley/Harper Valley PTA
TTITLE6=Connie Smith/Once A Day
TTITLE7=Lynn Anderson/Rose Garden
TTITLE8=Loretta Lynn/Coal Miner's Daughter
TTITLE9=Conway Twitty/Hello Darlin'
TTITLE10=Loretta Lynn and Conway Twitty/Lead Me On
TTITLE11=Dolly Parton/I Will Always Love You
EXTD=
EXTT0=
EXTT1=
EXTT2=
EXTT3=
EXTT4=
EXTT5=
EXTT6=
EXTT7=
EXTT8=
EXTT9=
EXTT10=
EXTT11=
PLAYORDER=
